<svg class="fill-current" data-name="Layer 1" xmlns="http://www.w3.org/2000/svg" viewBox="0 0 1663.97 278.38"><path d="M155.5 100.19c1-1.07 2-2.13 3-3.22 22.37-25.38 70.82-24.62 89.27 11a81.2 81.2 0 019.09 31.94c1.46 20.72 2.6 41.47 3.61 62.22.32 6.62 2 12.17 7.69 16.16a9.53 9.53 0 013.28 4.45c.92 2.66-.14 4.83-3 5.72a5.7 5.7 0 01-1.68.29c-13.26 0-26.52.1-39.77-.12-1.52 0-3.93-1.52-4.28-2.78-.47-1.67.59-3.83 1.2-5.7a3.5 3.5 0 011.64-1.53c6.52-3.68 7.78-9.36 7.32-16.4-1.41-21.29-2-42.64-3.7-63.91a85.18 85.18 0 00-5.27-23c-6.06-16.15-17.38-23.45-33.37-22.87-15.08.56-27.92 10.37-32.66 25.52a50.72 50.72 0 00-2.39 14.45c-.24 24.37-.06 48.75-.18 73.12a12.72 12.72 0 006.41 11.78c3.05 1.9 6.73 3.9 5.22 8.31-1.43 4.14-5.55 3.26-8.85 3.28-11 .09-22 0-33 0a25.25 25.25 0 01-4.53-.23c-3.94-.74-5.46-4.26-3.37-7.68a4.45 4.45 0 011.51-1.67c8.42-4.22 8.66-11.65 8.63-19.78q-.28-79.92 0-159.85c0-7-1.81-12.31-7.71-16.49s-5.1-8.44 1.4-11.42c7.91-3.63 15.91-7.07 23.94-10.45 7-3 9.91-1 9.89 6.63q-.1 42.79-.34 85.59v6.19zm772.22 111.46c-.71.17-1.2.14-1.38.36-18.59 22.86-53.9 26.1-79.68 10.25-24.25-14.9-35-37.55-35.63-65.14-.56-23.31 6.72-43.9 24.35-60.05 22-20.15 58.71-23.7 81.53-7.13 3 2.2 5.89 4.65 9.41 7.45.12-1.88.3-3.28.3-4.68 0-19.08-.12-38.16.08-57.24.07-6.33-2.26-10.92-7.54-14.21a20.09 20.09 0 01-3.16-2.33c-2.78-2.62-2.63-5.91.47-8.18A17.13 17.13 0 01921 8.53c7.53-2.54 15.07-5.06 22.65-7.45 7.34-2.31 9.74-.54 9.75 7.28v149.63c0 15.31.15 30.61-.07 45.91-.09 6.4 1.85 11.44 7.25 15a6.45 6.45 0 012.48 2.27c.68 1.62 1.51 3.65 1 5.14-.34 1.12-2.52 2.16-4 2.36a61.8 61.8 0 01-8.51.19c-5.3 0-10.61.07-15.91 0-5.09-.1-6.81-1.6-7.38-6.61-.34-3.49-.35-7.03-.54-10.6zm-1.14-55.41c0-7.37-.17-14.74 0-22.1.55-20.61-17.55-40.14-36.58-43.22-15.18-2.46-28.36 1.43-38.15 13.53a60.16 60.16 0 00-9.21 16.1c-6.1 16-5.5 32.6-2.42 49.15 2.6 14 7.91 26.76 17.69 37.4 15.13 16.45 37.82 18.56 53.92 5 9.73-8.21 13.94-19.13 14.59-31.46.5-8.14.16-16.28.16-24.4zm250.86-58.78c34 31.13 20.36 79.33-14.64 96.16 1.85.73 3.31 1.23 4.71 1.86 5.16 2.32 10.61 4.19 15.39 7.13 23.47 14.43 21.45 43.23 3.94 58.32a61.25 61.25 0 01-22.28 12.07c-20.74 6.35-41.72 7.16-62.75 1.75-12.72-3.27-23.92-9.39-32.78-19.32a39.52 39.52 0 01-10-21.18c-1.26-9 4.33-15.17 12.87-14.34a10.13 10.13 0 018.11 5.5c2.34 4.09 4.27 8.41 6.44 12.6a124.61 124.61 0 006.22 11.43c9.5 14.31 23.87 18.56 40 17.9a62 62 0 0019.29-4c13.7-5.21 21.14-17.58 20.12-31.61-1.12-15.31-10.25-26.68-24.79-30.16a49.57 49.57 0 00-13.48-1.15c-15.7.67-30.67-1.74-44-10.35-20.36-13.11-30.63-31.68-27.87-56.06 2.92-25.92 17.78-42.57 42.32-50.9 13.23-4.49 26.88-3.82 40.51-3.15 14 .69 28 1.51 41.95 2.29 3.21.18 6.51 0 9.59.8 2.15.53 5 1.91 5.73 3.66 1.24 2.89-1.55 4.93-3.94 6a59 59 0 01-10.22 3.14c-3.35.74-6.68 1.05-10.44 1.61zm-7.06 49c-1.69-7.69-2.89-15.54-5.19-23a52 52 0 00-16.11-24.2c-17.11-14.83-51.2-13.56-59 19.66-1.83 7.84-1.57 15.74-.3 23.62 2.34 14.53 7.67 27.62 18.88 37.71a35.77 35.77 0 0057.43-13c2.78-6.73 3.58-13.58 4.29-20.84zM1494.87 213c-14.26 17.77-33 20.46-53.25 18.46-9.54-.95-18.65-3.38-26.84-8.45-14.76-9.14-21.16-22.81-20.41-39.75.77-17.54 9.67-30.25 25.81-36.81 21.71-8.83 43.47-9.3 64.4 3a10.13 10.13 0 001.53.72c.15.06.37-.06 1.51-.28-.92-7.11-1.25-14.46-2.93-21.48a121.44 121.44 0 00-7.71-23c-9.19-19.66-42-21.56-52.61-.47-2.2 4.39-4.47 8.76-7 12.94-3.86 6.27-8.88 8-14.91 5.63-5.44-2.17-8-7.83-6.4-14.69 2-8.9 7.9-14.87 15.28-19.59a61.79 61.79 0 0126.62-9.13c15.3-1.74 30.32-1 44.19 6.7 17.34 9.57 26.48 25.11 30.18 43.82 2.41 12.18 3.34 24.66 4.72 37 1.36 12.19 2.43 24.42 3.69 36.62.74 7.22 4 12.47 11.5 14.47a10.47 10.47 0 013.53 1.77c2.3 1.75 2.41 4.25.41 6.36a7.15 7.15 0 01-1.33 1.05c-6.29 4.12-26.46 4-32.37-.75-2.5-2-4.11-5.25-5.77-8.13-.94-1.41-1.11-3.41-1.84-6.01zm-4-25.81c-.24-3.2-.37-6.41-.76-9.58-1.36-11.3-7.51-19.07-17.87-23.58-8.11-3.52-16.62-3.65-25-1.9-16.58 3.43-26 15.91-24.69 32.75a51.39 51.39 0 003.28 14.79c6.35 16.1 23.07 24.61 40.09 20.89 16.4-3.56 25.48-15.72 24.93-33.33zM680.2 79.55c14.45-.09 28.25 2.55 40.87 9.92 5.79 3.39 11.1 7.52 14.36 13.4a36.41 36.41 0 014.05 12.13c.74 5.14-2.36 9-7.25 10.88a10.12 10.12 0 01-12.23-3.25 56.39 56.39 0 01-4.76-7.69c-1.47-2.63-2.67-5.42-4.15-8-9.75-17.35-33.73-22.52-50.23-11.26-13.78 9.4-16.1 32.08 2.76 40.61 8 3.63 16.83 5.57 25.3 8.18 10.11 3.11 20.55 5.41 30.32 9.35 12.9 5.19 21.44 14.75 23.15 29.12 2.23 18.82-5.64 32.54-23.33 41-14 6.72-29 8.51-44.27 7.69-10.25-.55-20.3-2.3-29.83-6.37-8.67-3.7-16.7-8.41-21.91-16.44a30.47 30.47 0 01-4.21-11.48 9.61 9.61 0 016.15-11c4.89-2 9.78-2 13.73 1.93a36.51 36.51 0 015.18 7.36c2.2 3.74 4 7.74 6.23 11.44 5.41 8.86 13.56 13.48 23.79 14.48 9.14.9 18.18.62 26.67-3.51 8.87-4.32 14.08-11.07 14.48-21.25.41-10.51-4.35-18.14-13.68-22.09-8.48-3.58-17.56-5.76-26.4-8.47-9.93-3.05-20.15-5.34-29.77-9.14-14-5.54-22-16.24-23.2-31.5-1.23-15.51 5.62-27 18.19-35.41 12.07-8.05 25.66-10.85 39.99-10.63zm-267.43.01c15.63-.09 29.43 2.58 42 10 7 4.11 13 9.27 16.17 16.92a27.43 27.43 0 012.06 9.28c.21 5-2.7 8.6-7.4 10.26a10.13 10.13 0 01-11.81-3.14 43.29 43.29 0 01-4.61-7.11c-1.58-2.79-2.84-5.76-4.39-8.57-9.75-17.62-33.07-22.88-50.08-11.77-14.27 9.32-15.92 32.83 2.2 40.65 8.1 3.5 16.81 5.62 25.28 8.26 10.45 3.27 21.28 5.62 31.34 9.81 16.05 6.68 23.38 19.61 23 36.89-.21 9.37-4.07 17.15-10.7 23.63-8.86 8.63-19.83 13-31.77 15.23-17.84 3.33-35.44 2.49-52.62-3.56-8.12-2.86-15.66-6.93-21.45-13.41a37.07 37.07 0 01-6.67-10.37c-2.91-7.09-.66-13.49 4.88-16.17 6.43-3.13 12.92-1.19 17.07 5.47 2.59 4.16 4.67 8.64 7 12.94 3.47 6.3 8.09 11.58 15 14.08 13.24 4.8 26.46 4.6 39-2.06 8.36-4.43 12.48-11.78 12.41-21.38s-4.47-16.66-12.93-20.29c-8.63-3.7-17.85-6-26.85-8.87-10.62-3.35-21.66-5.71-31.84-10.06-19.17-8.17-24.71-27.44-20.37-43.72 3.59-13.48 13.4-21.57 25.64-27a69.1 69.1 0 0130.44-5.94zM24.78 95.6c-6.77 0-12.44.13-18.09 0C2 95.42 0 93.32 0 89c0-4.09 1.42-6 5.53-6.38 3.19-.33 6.42-.18 9.64-.26 11.21-.3 17.62-4.87 21-15.58A111.25 111.25 0 0039 53.47c.68-3.61 2.52-5.76 6.39-6 5-.29 7.18 1.16 7.5 6.23.44 7 .34 14 .45 21v7.19c2.67.19 4.68.44 6.68.45 10.8.05 21.59-.06 32.38.09 5.21.07 7.18 1.78 7.58 5.78.46 4.63-1.91 7.31-7 7.38-10.61.13-21.21.05-31.82.06h-7.37c-.16 2.54-.39 4.54-.39 6.54 0 27.38-.06 54.76 0 82.14a54.75 54.75 0 001.27 12.33c2.08 8.74 8.24 14 16.05 14.47 10 .58 18.38-4.1 21.76-12.21a42.29 42.29 0 001.36-4.31c.91-3.08 2.8-5 6.17-4.61 2.8.3 4.38 2.7 4.08 6.45-1.2 14.79-8.33 25.77-21.92 31.95a42.09 42.09 0 01-34.75.37c-13.43-5.62-19.28-17-21.59-30.47a93.27 93.27 0 01-1-15.23c-.1-26.63 0-53.25 0-79.88zm1562.94 11.53c0 31.94.13 63.88-.11 95.81 0 6.7 1.7 11.79 7.67 15.2a9.86 9.86 0 013.3 3c2 3.13.56 6.52-3.08 7.41a14.14 14.14 0 01-3.38.3h-35.25c-2.81 0-6 .28-7.13-3.23s.79-5.88 3.52-7.62c5.21-3.31 6.73-8 6.71-14q-.2-82.21 0-164.42c0-6.53-2-11.64-6.92-16-5.35-4.72-4.89-8.07 1.31-11.22 7.43-3.77 14.92-7.43 22.5-10.87 7.33-3.31 10.83-1 10.84 7q.07 49.31.02 98.64zm-283.61-11.5h-12.49a64.39 64.39 0 01-6.81-.14c-4-.44-5.41-2.23-5.44-6.5s1.11-5.92 5.41-6.39c3-.33 6-.2 9.07-.26 12.15-.23 18.93-5.45 22.05-17.24 1-3.64 1.41-7.41 2.16-11.11 1-4.75 2.8-6.39 7.16-6.48 4.67-.11 6.65 1.52 6.81 6.29.24 7.36.17 14.73.26 22.1.09 6.32.15 6.41 6.3 6.43 11 .05 22-.07 33 .08 5.65.08 7.29 1.69 7.39 6.37s-1.5 6.62-6.33 6.76c-7 .21-14 .09-21 .09H1333a49.86 49.86 0 00-.58 5.27v82.75a57.63 57.63 0 001.24 12.37c2.1 9.21 8.58 14.79 16.81 15.1 10.63.39 18.73-4.69 21.85-13.71.37-1.07.63-2.18 1-3.25 1-2.82 2.84-4.62 5.92-4.16s4.1 2.89 4.07 5.86a33.67 33.67 0 01-7.4 21c-11.28 14.2-26.36 17.73-43.32 13.83-15.59-3.6-23.82-14.65-26.88-29.7a87.25 87.25 0 01-1.51-16.86c-.15-27-.07-54-.07-81-.03-2.26-.02-4.47-.02-7.5zm-977.55 51.76c0 18.88.16 37.75-.09 56.62-.08 6.12 1.85 10.6 7.21 13.62a12.31 12.31 0 013.49 2.83c2.69 3.37 1.25 7.17-3 8.14a10 10 0 01-2.25.24h-37.48a10.59 10.59 0 01-2.81-.32c-2.9-.81-4.36-3.29-3.35-6.1a7 7 0 012.56-3.59c7.49-4.36 8.41-11.18 8.33-19q-.39-39.06 0-78.13c.06-7.67-1.92-13.91-7.86-19.09-4.95-4.31-4.44-7.26 1.41-10.33 7.53-3.94 15.16-7.73 22.89-11.28 7.29-3.35 10.82-1.11 10.88 6.94.13 19.81 0 39.63 0 59.45zm262.5-.54c0 18.88.2 37.77-.12 56.65-.1 6.37 1.88 11 7.36 14.15a13.2 13.2 0 013.1 2.45c3.1 3.43 1.77 7.54-2.73 8.51a16.57 16.57 0 01-3.39.27h-35.22a15.36 15.36 0 01-3.39-.26c-4-.91-5.52-4.4-3.12-7.71a22.47 22.47 0 014.55-4.19 12.76 12.76 0 005.32-10.7q-.12-44.47 0-88.94c0-5.56-2.55-9.66-6.37-13.36-6.5-6.29-6.22-8.2 1.74-12.25q10.11-5.16 20.37-10a19.9 19.9 0 015.92-1.76c3.11-.4 5.1 1.3 5.69 4.29a29.39 29.39 0 01.28 5.64q.02 28.6.01 57.21zm443.24-.06c0 19.08.16 38.15-.09 57.22-.08 5.92 1.79 10.25 6.83 13.28.8.48 1.56 1.05 2.33 1.61 2.15 1.58 3.41 3.61 2.71 6.34-.76 2.95-3.26 3.54-5.79 3.55-12.88.07-25.76.17-38.63-.09a7.83 7.83 0 01-5.45-3.06c-1.62-2.34.11-4.65 2-6.43a21.68 21.68 0 012.65-2.13c4.26-3 5.88-7 5.86-12.13q-.2-43.35 0-86.68a17.84 17.84 0 00-6-14.1 33.54 33.54 0 01-3.22-3.2c-2.58-3.09-2.42-5.32 1-7.49s7-3.74 10.55-5.52c4.56-2.29 9.11-4.62 13.75-6.74 7.94-3.63 11.43-1.42 11.45 7.22q.09 29.18.05 58.35zm226.18.01c0 19.07.17 38.15-.09 57.22-.08 5.92 1.81 10.25 6.84 13.27.8.49 1.56 1.06 2.33 1.62 2.15 1.57 3.4 3.61 2.7 6.33-.76 3-3.26 3.54-5.8 3.55-12.87.08-25.75.17-38.62-.09a7.83 7.83 0 01-5.45-3.06c-1.61-2.35.11-4.66 2-6.44a34 34 0 013.11-2.47c3.78-2.8 5.4-6.47 5.38-11.22q-.15-43.92 0-87.82c0-5.51-2.1-9.78-5.94-13.54-7.16-7-6.86-8.63 2.25-13.2q9.64-4.83 19.37-9.48a19 19 0 015.36-1.74c3.64-.51 5.82 1.16 6.42 4.76a31.93 31.93 0 01.17 5.09q-.02 28.61-.03 57.22zM291.16 35.36c-.05-11.91 8.21-19.77 20.77-19.75 11.79 0 19.93 7.8 20.15 19.24s-8 19.61-20.21 19.69c-12.37.09-20.66-7.54-20.71-19.18zm280.66 19.19c-12.33 0-20.76-7.81-20.82-19.22-.07-11.66 8.65-19.87 21-19.71 12 .15 20.38 8.34 20.23 19.84-.23 11.24-8.61 19.11-20.41 19.09zM1038 35.09c.06 11.23-8.19 19.27-20 19.46-12.5.21-21.23-7.79-21.2-19.42 0-11.44 8.42-19.4 20.58-19.51 11.97-.11 20.56 8.01 20.62 19.47zm226.19.03c0 11.23-8.23 19.26-20 19.43-12.5.18-21.21-7.82-21.16-19.45 0-11.44 8.48-19.4 20.62-19.48 11.92-.08 20.5 8.06 20.54 19.5z"></path><path d="M1664 213.88c-.1 11.06-8.3 18.47-20.18 18.23s-19.54-7.68-19.35-19c.19-11.09 8.39-18.55 20.15-18.33s19.44 7.79 19.38 19.1z" fill="#00eb8f"></path></svg>